<?xml version="1.0" encoding="UTF-8"?>
<!DOCTYPE svg PUBLIC "-//W3C//DTD SVG 1.1//EN" "http://www.w3.org/Graphics/SVG/1.1/DTD/svg11.dtd">
<!-- Creator: CorelDRAW 2017 -->
<svg xmlns="http://www.w3.org/2000/svg" xml:space="preserve" width="1309px" height="1059px" version="1.1" style="shape-rendering:geometricPrecision; text-rendering:geometricPrecision; image-rendering:optimizeQuality; fill-rule:evenodd; clip-rule:evenodd"
viewBox="0 0 793.18 641.69"
 xmlns:xlink="http://www.w3.org/1999/xlink">
 <defs>
  <style type="text/css">
   <![CDATA[
    .fil0 {fill:#333333}
    .fil1 {fill:#F5F6FA;fill-rule:nonzero}
   ]]>
  </style>
 </defs>
 <g id="Layer_x0020_1">
  <metadata id="CorelCorpID_0Corel-Layer"/>
  <rect class="fil0" width="793.18" height="641.69" rx="150.42" ry="150.42"/>
  <path class="fil1" d="M108.31 288.84l0 -190.95 68.28 0c9.77,0 18.8,1.51 27.07,4.53 8.26,3.02 15.42,7.24 21.47,12.67 6.04,5.42 10.75,11.95 14.13,19.6 3.38,7.64 5.07,16.09 5.07,25.33 0,9.25 -1.69,17.7 -5.07,25.34 -3.38,7.65 -8.09,14.18 -14.13,19.6 -6.05,5.43 -13.21,9.65 -21.47,12.67 -8.27,3.02 -17.3,4.54 -27.07,4.54l-26.67 0 0 66.67 -41.61 0zm69.61 -106.15c8.71,0 15.2,-2.13 19.47,-6.4 4.27,-4.26 6.4,-9.69 6.4,-16.27 0,-6.57 -2.13,-12 -6.4,-16.26 -4.27,-4.27 -10.76,-6.4 -19.47,-6.4l-28 0 0 45.33 28 0zm126.63 -84.8l72 0c10.32,0 19.56,1.55 27.74,4.66 8.18,3.11 15.07,7.43 20.67,12.94 5.6,5.51 9.87,12.04 12.8,19.6 2.94,7.56 4.4,15.78 4.4,24.67 0,6.22 -1.02,12 -3.06,17.33 -2.05,5.34 -4.8,10.27 -8.27,14.81 -3.47,4.53 -7.51,8.53 -12.14,12 -4.62,3.46 -9.6,6.35 -14.93,8.66l0 2.4 49.87 71.21 0 2.67 -47.47 0 -48.27 -68.81 -11.74 0 0 68.81 -41.6 0 0 -190.95zm72 83.74c7.47,0 13.34,-2.18 17.61,-6.54 4.26,-4.35 6.4,-9.73 6.4,-16.13 0,-6.4 -2,-11.78 -6,-16.14 -4,-4.35 -10,-6.53 -18.01,-6.53l-30.4 0 0 45.34 30.4 0zm224.78 111.48c-14.4,0 -27.74,-2.58 -40.01,-7.74 -12.27,-5.15 -22.89,-12.22 -31.87,-21.2 -8.98,-8.98 -16,-19.51 -21.07,-31.6 -5.06,-12.09 -7.6,-25.16 -7.6,-39.21 0,-14.04 2.54,-27.11 7.6,-39.2 5.07,-12.09 12.09,-22.63 21.07,-31.61 8.98,-8.97 19.6,-16.04 31.87,-21.2 12.27,-5.15 25.61,-7.73 40.01,-7.73 14.4,0 27.73,2.58 40,7.73 12.27,5.16 22.89,12.23 31.87,21.2 8.98,8.98 16,19.52 21.07,31.61 5.07,12.09 7.6,25.16 7.6,39.2 0,14.05 -2.53,27.12 -7.6,39.21 -5.07,12.09 -12.09,22.62 -21.07,31.6 -8.98,8.98 -19.6,16.05 -31.87,21.2 -12.27,5.16 -25.6,7.74 -40,7.74zm0 -39.48c8.18,0 15.87,-1.42 23.07,-4.26 7.2,-2.85 13.46,-6.94 18.8,-12.27 5.33,-5.33 9.51,-11.69 12.53,-19.07 3.02,-7.38 4.54,-15.6 4.54,-24.67 0,-9.07 -1.52,-17.29 -4.54,-24.67 -3.02,-7.38 -7.2,-13.73 -12.53,-19.07 -5.34,-5.33 -11.6,-9.42 -18.8,-12.26 -7.2,-2.85 -14.89,-4.27 -23.07,-4.27 -8.36,0 -16.09,1.42 -23.21,4.27 -7.11,2.84 -13.33,6.93 -18.66,12.26 -5.34,5.34 -9.52,11.69 -12.54,19.07 -3.02,7.38 -4.53,15.6 -4.53,24.67 0,9.07 1.51,17.29 4.53,24.67 3.02,7.38 7.2,13.74 12.54,19.07 5.33,5.33 11.55,9.42 18.66,12.27 7.12,2.84 14.85,4.26 23.21,4.26zm-440.75 303.3c-7.82,0 -15.15,-1.12 -22,-3.34 -6.84,-2.22 -13.11,-5.42 -18.8,-9.6 -5.69,-4.18 -10.62,-9.15 -14.8,-14.93 -4.18,-5.78 -7.34,-12.23 -9.47,-19.34l37.87 -15.47c1.78,6.76 4.89,12.31 9.34,16.67 4.44,4.36 10.4,6.53 17.86,6.53 7.29,0 12.98,-2.17 17.07,-6.53 4.09,-4.36 6.14,-11.07 6.14,-20.13l0 -129.08 41.6 0 0 129.61c0,10.85 -1.73,20.36 -5.2,28.54 -3.47,8.17 -8.18,15.02 -14.13,20.53 -5.96,5.51 -12.85,9.65 -20.67,12.4 -7.83,2.76 -16.09,4.14 -24.81,4.14zm162.37 -195.22l41.6 0 0 73.6 2.67 0 62.94 -73.6 49.34 0 0 2.66 -68.01 77.61 76.28 108.01 0 2.67 -50.68 0 -54.4 -77.61 -18.14 21.07 0 56.54 -41.6 0 0 -190.95zm287.44 190.95l0 -151.48 -53.33 0 0 -39.47 148.28 0 0 39.47 -53.34 0 0 151.48 -41.61 0z"/>
 </g>
</svg>
