<?xml version="1.0" encoding="UTF-8"?>
<!DOCTYPE svg PUBLIC "-//W3C//DTD SVG 1.1//EN" "http://www.w3.org/Graphics/SVG/1.1/DTD/svg11.dtd">
<!-- Creator: CorelDRAW 2017 -->
<svg xmlns="http://www.w3.org/2000/svg" xml:space="preserve" width="345px" height="363px" version="1.1" style="shape-rendering:geometricPrecision; text-rendering:geometricPrecision; image-rendering:optimizeQuality; fill-rule:evenodd; clip-rule:evenodd"
viewBox="0 0 3.36 3.54"
 xmlns:xlink="http://www.w3.org/1999/xlink">
 <defs>
  <style type="text/css">
   <![CDATA[
    .fil1 {fill:#FF4D4D}
    .fil0 {fill:black;fill-opacity:0.031373}
   ]]>
  </style>
 </defs>
 <g id="Layer_x0020_1">
  <metadata id="CorelCorpID_0Corel-Layer"/>
  <path class="fil0" d="M2.05 2.55c0.23,0 0.36,0.02 0.51,-0.07l0.36 -0.25c0,0.99 0.12,0.87 -0.8,0.87 -0.55,0 -1.11,0 -1.66,0 0,-0.28 -0.04,-0.21 0.41,-0.51l1.33 -0.91c0.06,-0.04 0.12,-0.08 0.19,-0.12l0.57 -0.4c0.08,-0.05 0.33,-0.23 0.38,-0.25 0,-0.15 0.03,-0.63 -0.03,-0.75 -0.03,-0.06 -0.07,-0.1 -0.14,-0.13 -0.03,-0.02 -0.07,-0.02 -0.13,-0.03 -1.02,0 -2.03,0 -3.04,0l0 2.06c0.18,-0.13 1.63,-1.09 1.66,-1.15 -0.21,0 -0.57,-0.03 -0.74,0.02 -0.12,0.03 -0.37,0.22 -0.48,0.29 0,-0.13 0,-0.26 0,-0.39 0,-0.16 -0.02,-0.24 0.08,-0.33 0.08,-0.08 0.19,-0.06 0.34,-0.06l2.04 0c0,0.26 0.03,0.22 -0.2,0.37 -0.12,0.08 -0.23,0.16 -0.35,0.24 -0.12,0.08 -0.23,0.15 -0.35,0.24l-1.82 1.24c-0.09,0.06 -0.17,0.12 -0.17,0.27 0,0.14 -0.01,0.46 0.01,0.57 0.04,0.19 0.25,0.17 0.42,0.17l2.92 0 0 -2.14 -1.66 1.14 0.35 0.01z"/>
  <path class="fil1" d="M1.9 2.22c0.14,0 0.22,0.01 0.31,-0.04l0.21 -0.14c0,0.58 0.07,0.51 -0.48,0.51 -0.33,0 -0.66,0 -0.99,0 0,-0.16 -0.03,-0.12 0.25,-0.3l0.79 -0.55c0.04,-0.02 0.07,-0.04 0.11,-0.07l0.34 -0.23c0.05,-0.03 0.2,-0.14 0.23,-0.15 0,-0.09 0.02,-0.38 -0.01,-0.45 -0.02,-0.04 -0.05,-0.06 -0.09,-0.08 -0.02,-0.01 -0.04,-0.02 -0.08,-0.02 -0.6,0 -1.21,0 -1.81,0l0 1.23c0.1,-0.07 0.97,-0.65 0.99,-0.68 -0.13,0 -0.34,-0.02 -0.45,0.01 -0.06,0.02 -0.22,0.13 -0.28,0.17 0,-0.08 0,-0.15 0,-0.23 0,-0.1 -0.01,-0.15 0.04,-0.2 0.06,-0.05 0.12,-0.04 0.21,-0.04l1.22 0c0,0.16 0.02,0.13 -0.12,0.22 -0.07,0.05 -0.14,0.1 -0.21,0.15 -0.07,0.05 -0.13,0.09 -0.21,0.14l-1.09 0.74c-0.05,0.04 -0.1,0.08 -0.1,0.16 0,0.09 0,0.28 0.01,0.35 0.02,0.11 0.15,0.1 0.25,0.1l1.74 0 0 -1.28 -0.99 0.68 0.21 0z"/>
 </g>
</svg>
