<svg width="148" height="38" viewBox="0 0 148 38" fill="none" xmlns="http://www.w3.org/2000/svg">
<path d="M3.87 1H12.3L0 13.31V4.87C0.00263985 3.84442 0.411218 2.86161 1.13641 2.13641C1.86161 1.41122 2.84442 1.00264 3.87 1V1ZM25.34 1H31.34C32.3638 1.00527 33.3441 1.41502 34.0671 2.13993C34.7902 2.86484 35.1974 3.84615 35.2 4.87V10.87L9.86 36.2H3.86C2.83616 36.1947 1.8559 35.785 1.13287 35.0601C0.409829 34.3352 0.00262521 33.3539 0 32.33V26.33L25.35 1.01L25.34 1ZM35.2 23.92V32.33C35.1974 33.3556 34.7888 34.3384 34.0636 35.0636C33.3384 35.7888 32.3556 36.1974 31.33 36.2H22.91L35.2 23.92Z" fill="#FF4D4D"/>
<path d="M45.3303 15.7489L51.5828 8.99622H45.5304V6.1951H55.6094V8.89618L49.3569 15.6489H55.7095V18.45H45.3303V15.7489Z" fill="#CBCBCB"/>
<path d="M65.207 17.1495H65.0069C64.6235 17.6163 64.1566 18.0165 63.6064 18.35C63.0728 18.6834 62.3809 18.8502 61.5306 18.8502C60.897 18.8502 60.2967 18.7418 59.7298 18.525C59.1796 18.325 58.6961 18.0415 58.2793 17.6747C57.8624 17.3079 57.5373 16.866 57.3039 16.3492C57.0704 15.8323 56.9537 15.2654 56.9537 14.6485C56.9537 14.0149 57.0788 13.448 57.3289 12.9478C57.579 12.4309 57.9291 11.9891 58.3793 11.6223C58.8295 11.2555 59.3547 10.9803 59.9549 10.7969C60.5718 10.5969 61.2388 10.4968 61.9557 10.4968C62.756 10.4968 63.4146 10.5635 63.9315 10.6969C64.4484 10.8136 64.8736 10.9387 65.207 11.0721V10.6969C65.207 10.0466 64.9486 9.5131 64.4317 9.09626C63.9148 8.66276 63.2729 8.446 62.5059 8.446C61.3722 8.446 60.4134 8.92119 59.6298 9.87157L57.2538 8.24592C58.5544 6.61194 60.3301 5.79494 62.581 5.79494C64.4817 5.79494 65.9323 6.24512 66.9327 7.14548C67.9331 8.02917 68.4333 9.34636 68.4333 11.0971V18.45H65.207V17.1495ZM65.207 13.473C64.8235 13.2896 64.4234 13.1479 64.0065 13.0478C63.6064 12.9311 63.1645 12.8728 62.681 12.8728C61.8974 12.8728 61.2888 13.0478 60.8553 13.398C60.4384 13.7314 60.23 14.1483 60.23 14.6485C60.23 15.1487 60.4301 15.5488 60.8303 15.849C61.2471 16.1491 61.7223 16.2991 62.2558 16.2991C62.6893 16.2991 63.0895 16.2241 63.4563 16.0741C63.8231 15.9073 64.1316 15.6989 64.3817 15.4488C64.6485 15.182 64.8485 14.8819 64.9819 14.5484C65.132 14.1983 65.207 13.8398 65.207 13.473Z" fill="#CBCBCB"/>
<path d="M71.0383 6.1951H74.1145V7.79574H74.3146C74.6981 7.1955 75.2149 6.71198 75.8652 6.34516C76.5321 5.97835 77.2658 5.79494 78.0661 5.79494C78.9998 5.79494 79.7834 6.0117 80.417 6.4452C81.0506 6.87871 81.5008 7.41226 81.7676 8.04584C82.151 7.42893 82.6929 6.90372 83.3932 6.47021C84.0935 6.02003 84.9438 5.79494 85.9442 5.79494C86.6945 5.79494 87.3448 5.91999 87.895 6.17009C88.4452 6.40352 88.8954 6.73699 89.2455 7.17049C89.6124 7.604 89.8875 8.12921 90.0709 8.74612C90.2543 9.34636 90.346 10.005 90.346 10.7219V18.45H87.0697V11.3222C87.0697 9.65482 86.3861 8.82115 85.0188 8.82115C84.5853 8.82115 84.2019 8.92119 83.8684 9.12127C83.5349 9.30468 83.2515 9.56312 83.0181 9.89658C82.8013 10.2134 82.6262 10.5969 82.4928 11.047C82.3761 11.4972 82.3178 11.9807 82.3178 12.4976V18.45H79.0415V11.3222C79.0415 9.65482 78.3245 8.82115 76.8906 8.82115C76.4738 8.82115 76.107 8.92119 75.7902 9.12127C75.4734 9.30468 75.2066 9.56312 74.9898 9.89658C74.7731 10.2134 74.6064 10.5969 74.4896 11.047C74.3729 11.4972 74.3146 11.9807 74.3146 12.4976V18.45H71.0383V6.1951Z" fill="#CBCBCB"/>
<path d="M92.9441 6.1951H96.0203V7.67069H96.2204C96.5205 7.15382 96.9874 6.71198 97.621 6.34516C98.2545 5.97835 99.0382 5.79494 99.9719 5.79494C100.756 5.79494 101.498 5.96168 102.198 6.29514C102.915 6.61194 103.54 7.06212 104.074 7.64568C104.624 8.21258 105.057 8.89618 105.374 9.6965C105.691 10.4968 105.849 11.3722 105.849 12.3226C105.849 13.2729 105.691 14.1483 105.374 14.9486C105.057 15.7489 104.624 16.4409 104.074 17.0244C103.54 17.5913 102.915 18.0415 102.198 18.375C101.498 18.6918 100.756 18.8502 99.9719 18.8502C99.0382 18.8502 98.2545 18.6668 97.621 18.2999C96.9874 17.9331 96.5205 17.4913 96.2204 16.9744H96.0203L96.2204 18.7251V23.8522H92.9441V6.1951ZM99.2966 15.824C99.7301 15.824 100.139 15.7406 100.522 15.5739C100.922 15.4071 101.272 15.1737 101.573 14.8736C101.873 14.5735 102.114 14.2066 102.298 13.7731C102.481 13.3396 102.573 12.8561 102.573 12.3226C102.573 11.789 102.481 11.3055 102.298 10.872C102.114 10.4385 101.873 10.0717 101.573 9.77153C101.272 9.47141 100.922 9.23799 100.522 9.07125C100.139 8.90452 99.7301 8.82115 99.2966 8.82115C98.8631 8.82115 98.4463 8.90452 98.0461 9.07125C97.6626 9.22131 97.3208 9.4464 97.0207 9.74652C96.7206 10.0466 96.4788 10.4135 96.2954 10.847C96.112 11.2805 96.0203 11.7723 96.0203 12.3226C96.0203 12.8728 96.112 13.3646 96.2954 13.7981C96.4788 14.2316 96.7206 14.5985 97.0207 14.8986C97.3208 15.1987 97.6626 15.4321 98.0461 15.5989C98.4463 15.7489 98.8631 15.824 99.2966 15.824Z" fill="#CBCBCB"/>
<path d="M107.821 6.1951H110.897V7.89578H111.097C111.247 7.59566 111.447 7.32055 111.697 7.07045C111.947 6.82035 112.222 6.6036 112.522 6.42019C112.839 6.23679 113.173 6.09506 113.523 5.99502C113.89 5.89498 114.248 5.84496 114.598 5.84496C115.032 5.84496 115.399 5.88665 115.699 5.97001C116.015 6.05338 116.282 6.16176 116.499 6.29514L115.624 9.27133C115.424 9.17129 115.198 9.09626 114.948 9.04624C114.715 8.97955 114.423 8.9462 114.073 8.9462C113.623 8.9462 113.214 9.03791 112.848 9.22131C112.481 9.38805 112.164 9.62981 111.897 9.9466C111.647 10.2634 111.447 10.6385 111.297 11.0721C111.164 11.4889 111.097 11.9474 111.097 12.4476V18.45H107.821V6.1951Z" fill="#CBCBCB"/>
<path d="M116.23 20.851C116.363 20.9343 116.488 20.9927 116.605 21.026C116.738 21.0594 116.896 21.0761 117.08 21.0761C117.83 21.0761 118.205 20.5842 118.205 19.6005V6.1951H121.482V19.7005C121.482 20.5008 121.373 21.1761 121.157 21.7263C120.94 22.2932 120.648 22.7517 120.281 23.1019C119.914 23.452 119.489 23.7021 119.006 23.8522C118.522 24.0189 118.005 24.1023 117.455 24.1023C117.038 24.1023 116.663 24.0689 116.33 24.0022C115.996 23.9522 115.688 23.8688 115.404 23.7521L116.23 20.851ZM119.831 4.41939C119.548 4.41939 119.272 4.36937 119.006 4.26933C118.756 4.15262 118.53 4.00256 118.33 3.81915C118.147 3.61907 117.997 3.39398 117.88 3.14388C117.78 2.89378 117.73 2.61867 117.73 2.31855C117.73 2.01843 117.78 1.74332 117.88 1.49322C117.997 1.24312 118.147 1.02637 118.33 0.842962C118.53 0.642882 118.756 0.492822 119.006 0.392781C119.272 0.276068 119.548 0.217712 119.831 0.217712C120.415 0.217712 120.915 0.426129 121.332 0.842962C121.748 1.24312 121.957 1.73499 121.957 2.31855C121.957 2.90212 121.748 3.40232 121.332 3.81915C120.915 4.21931 120.415 4.41939 119.831 4.41939Z" fill="#CBCBCB"/>
<path d="M124.478 0.542842H127.754V10.2967H127.904L132.006 6.1951H136.057V6.39518L131.505 10.822L136.432 18.2499V18.45H132.556L129.204 13.0729L127.754 14.4984V18.45H124.478V0.542842Z" fill="#CBCBCB"/>
<path d="M139.09 8.99622H136.939V6.1951H139.09V2.4436H142.367V6.1951H145.368V8.99622H142.367V13.7481C142.367 14.0316 142.392 14.2983 142.442 14.5484C142.508 14.7819 142.625 14.982 142.792 15.1487C143.025 15.4155 143.359 15.5488 143.792 15.5488C144.076 15.5488 144.301 15.5238 144.467 15.4738C144.634 15.4071 144.793 15.3238 144.943 15.2237L145.868 18.0999C145.484 18.2833 145.068 18.4167 144.617 18.5C144.184 18.6001 143.7 18.6501 143.167 18.6501C142.55 18.6501 141.991 18.5584 141.491 18.375C141.008 18.1749 140.599 17.9081 140.266 17.5747C139.482 16.8244 139.09 15.7573 139.09 14.3734V8.99622Z" fill="#CBCBCB"/>
<path d="M48.9113 32.131L50.8205 35H48.6326L47.3014 32.5954L46.8782 35H45.1135L46.4654 27.3632H48.2302L47.4871 31.5738L49.6337 29.2414H51.8112L48.9113 32.131Z" fill="#CBCBCB"/>
<path d="M58.1907 29.2414L57.1793 35H55.4146L55.5487 34.2157C55.3217 34.4702 55.0431 34.6766 54.7128 34.8349C54.3895 34.9862 54.042 35.0619 53.6705 35.0619C53.0926 35.0619 52.6385 34.9002 52.3083 34.5769C51.978 34.2466 51.8129 33.7891 51.8129 33.2043C51.8129 32.9842 51.8301 32.7846 51.8645 32.6058L52.4631 29.2414H54.2175L53.6705 32.3684C53.6499 32.4785 53.6395 32.5851 53.6395 32.6883C53.6395 32.9773 53.7187 33.2009 53.8769 33.3591C54.042 33.5105 54.2691 33.5862 54.558 33.5862C54.8883 33.5862 55.1669 33.4898 55.3939 33.2972C55.6279 33.0977 55.7827 32.8156 55.8583 32.451L56.4259 29.2414H58.1907Z" fill="#CBCBCB"/>
<path d="M66.8267 29.1795C67.4459 29.1795 67.9275 29.3446 68.2715 29.6749C68.6224 29.9982 68.7978 30.4523 68.7978 31.0371C68.7978 31.216 68.7772 31.4155 68.7359 31.6357L68.1374 35H66.383L66.9402 31.873C66.954 31.8042 66.9609 31.7114 66.9609 31.5944C66.9609 31.3054 66.8783 31.0853 66.7132 30.9339C66.555 30.7826 66.3314 30.7069 66.0424 30.7069C65.6984 30.7069 65.4094 30.8101 65.1755 31.0165C64.9416 31.216 64.7937 31.5015 64.7318 31.873L64.1745 35H62.4201L62.9774 31.873C62.9911 31.8042 62.998 31.7114 62.998 31.5944C62.998 31.3054 62.9154 31.0853 62.7503 30.9339C62.5921 30.7826 62.3685 30.7069 62.0795 30.7069C61.7355 30.7069 61.4466 30.8101 61.2126 31.0165C60.9787 31.216 60.8308 31.5015 60.7689 31.873V31.8214L60.2116 35H58.4469L59.4582 29.2414H61.223L61.0991 29.9742C61.3193 29.7265 61.5842 29.5338 61.8938 29.3962C62.2102 29.2518 62.5508 29.1795 62.9154 29.1795C63.3558 29.1795 63.7273 29.2724 64.03 29.4582C64.3396 29.6439 64.5598 29.9122 64.6905 30.2631C64.945 29.9398 65.2615 29.6783 65.6399 29.4788C66.0183 29.2793 66.4139 29.1795 66.8267 29.1795Z" fill="#CBCBCB"/>
<path d="M69.5367 32.1104C69.6399 31.5187 69.8429 30.9993 70.1456 30.5521C70.4483 30.1049 70.8129 29.7609 71.2395 29.5201C71.6661 29.2793 72.1167 29.1589 72.5914 29.1589C72.9973 29.1589 73.3379 29.2414 73.6131 29.4066C73.8883 29.5717 74.0878 29.7884 74.2117 30.0567L74.3561 29.2414H76.1209L75.0992 35H73.3345L73.4893 34.1847C73.2691 34.453 72.9905 34.6698 72.6533 34.8349C72.3162 35 71.9447 35.0826 71.5388 35.0826C71.1329 35.0826 70.7717 34.9897 70.4552 34.8039C70.1456 34.6182 69.9048 34.3567 69.7328 34.0196C69.5608 33.6756 69.4748 33.2731 69.4748 32.8122C69.4748 32.592 69.4954 32.3581 69.5367 32.1104ZM73.8505 32.1207C73.8711 31.9969 73.8814 31.8834 73.8814 31.7802C73.8814 31.443 73.7817 31.1782 73.5821 30.9855C73.3895 30.7929 73.1418 30.6966 72.8391 30.6966C72.4882 30.6966 72.1683 30.8238 71.8793 31.0784C71.5904 31.3261 71.4081 31.6701 71.3324 32.1104C71.3117 32.2342 71.3014 32.3478 71.3014 32.451C71.3014 32.7881 71.3977 33.0564 71.5904 33.2559C71.7899 33.4486 72.0376 33.5449 72.3334 33.5449C72.6843 33.5449 73.0042 33.4176 73.2932 33.163C73.5821 32.9085 73.7679 32.561 73.8505 32.1207Z" fill="#CBCBCB"/>
<path d="M80.9373 29.1795C81.5015 29.1795 81.9452 29.3412 82.2686 29.6646C82.5988 29.9879 82.7639 30.4386 82.7639 31.0165C82.7639 31.2091 82.7433 31.4155 82.702 31.6357L82.1035 35H80.3491L80.9063 31.873C80.927 31.7561 80.9373 31.6529 80.9373 31.5634C80.9373 31.2745 80.8547 31.0509 80.6896 30.8926C80.5314 30.7344 80.3078 30.6553 80.0188 30.6553C79.6748 30.6553 79.3859 30.7619 79.1519 30.9752C78.918 31.1885 78.7667 31.4878 78.6979 31.873V31.8524L78.1406 35H76.3759L77.7278 27.3632H79.4925L79.0281 30.0051C79.2551 29.7506 79.5338 29.551 79.864 29.4066C80.1943 29.2552 80.552 29.1795 80.9373 29.1795Z" fill="#CBCBCB"/>
<path d="M83.4949 32.1104C83.5981 31.5187 83.8011 30.9993 84.1038 30.5521C84.4065 30.1049 84.7711 29.7609 85.1977 29.5201C85.6243 29.2793 86.0749 29.1589 86.5496 29.1589C86.9555 29.1589 87.2961 29.2414 87.5713 29.4066C87.8465 29.5717 88.046 29.7884 88.1699 30.0567L88.3143 29.2414H90.0791L89.0574 35H87.2927L87.4475 34.1847C87.2273 34.453 86.9487 34.6698 86.6115 34.8349C86.2744 35 85.9029 35.0826 85.497 35.0826C85.0911 35.0826 84.7299 34.9897 84.4134 34.8039C84.1038 34.6182 83.863 34.3567 83.691 34.0196C83.519 33.6756 83.433 33.2731 83.433 32.8122C83.433 32.592 83.4536 32.3581 83.4949 32.1104ZM87.8087 32.1207C87.8293 31.9969 87.8396 31.8834 87.8396 31.7802C87.8396 31.443 87.7399 31.1782 87.5403 30.9855C87.3477 30.7929 87.1 30.6966 86.7973 30.6966C86.4464 30.6966 86.1265 30.8238 85.8375 31.0784C85.5486 31.3261 85.3663 31.6701 85.2906 32.1104C85.2699 32.2342 85.2596 32.3478 85.2596 32.451C85.2596 32.7881 85.3559 33.0564 85.5486 33.2559C85.7481 33.4486 85.9958 33.5449 86.2916 33.5449C86.6425 33.5449 86.9624 33.4176 87.2514 33.163C87.5403 32.9085 87.7261 32.561 87.8087 32.1207Z" fill="#CBCBCB"/>
<path d="M92.8877 32.1104C92.9909 31.5187 93.1939 30.9993 93.4966 30.5521C93.7993 30.1049 94.1639 29.7609 94.5905 29.5201C95.0171 29.2793 95.4677 29.1589 95.9424 29.1589C96.3483 29.1589 96.6889 29.2414 96.9641 29.4066C97.2393 29.5717 97.4388 29.7884 97.5627 30.0567L97.7071 29.2414H99.4719L98.4502 35H96.6855L96.8403 34.1847C96.6201 34.453 96.3415 34.6698 96.0043 34.8349C95.6672 35 95.2957 35.0826 94.8898 35.0826C94.4839 35.0826 94.1227 34.9897 93.8062 34.8039C93.4966 34.6182 93.2558 34.3567 93.0838 34.0196C92.9118 33.6756 92.8258 33.2731 92.8258 32.8122C92.8258 32.592 92.8464 32.3581 92.8877 32.1104ZM97.2015 32.1207C97.2221 31.9969 97.2324 31.8834 97.2324 31.7802C97.2324 31.443 97.1327 31.1782 96.9331 30.9855C96.7405 30.7929 96.4928 30.6966 96.1901 30.6966C95.8392 30.6966 95.5193 30.8238 95.2303 31.0784C94.9414 31.3261 94.7591 31.6701 94.6834 32.1104C94.6627 32.2342 94.6524 32.3478 94.6524 32.451C94.6524 32.7881 94.7487 33.0564 94.9414 33.2559C95.1409 33.4486 95.3886 33.5449 95.6844 33.5449C96.0353 33.5449 96.3552 33.4176 96.6442 33.163C96.9331 32.9085 97.1189 32.561 97.2015 32.1207Z" fill="#CBCBCB"/>
<path d="M101.739 28.6429C101.464 28.6429 101.244 28.5706 101.079 28.4262C100.921 28.2748 100.841 28.0856 100.841 27.8586C100.841 27.549 100.962 27.2841 101.203 27.0639C101.443 26.8438 101.736 26.7337 102.08 26.7337C102.355 26.7337 102.572 26.8094 102.73 26.9607C102.888 27.1052 102.967 27.2944 102.967 27.5283C102.967 27.831 102.847 28.0925 102.606 28.3126C102.365 28.5328 102.076 28.6429 101.739 28.6429ZM102.503 29.2414L101.492 35H99.7269L100.738 29.2414H102.503Z" fill="#CBCBCB"/>
<path d="M107.301 29.1795C107.879 29.1795 108.333 29.3412 108.663 29.6646C108.993 29.9879 109.159 30.4386 109.159 31.0165C109.159 31.2091 109.138 31.4155 109.097 31.6357L108.498 35H106.744L107.301 31.873C107.322 31.7561 107.332 31.6529 107.332 31.5634C107.332 31.2745 107.249 31.0509 107.084 30.8926C106.926 30.7344 106.702 30.6553 106.413 30.6553C106.069 30.6553 105.78 30.7619 105.547 30.9752C105.313 31.1885 105.161 31.4878 105.092 31.873V31.8214L104.535 35H102.77L103.782 29.2414H105.547L105.412 30.0154C105.639 29.7609 105.915 29.5579 106.238 29.4066C106.568 29.2552 106.923 29.1795 107.301 29.1795Z" fill="#CBCBCB"/>
<path d="M112.944 29.1589C113.35 29.1589 113.694 29.2414 113.976 29.4066C114.258 29.5717 114.454 29.7884 114.564 30.0567L114.709 29.2414H116.474L115.462 34.9897C115.366 35.5194 115.173 35.9976 114.884 36.4242C114.602 36.8576 114.22 37.2016 113.739 37.4562C113.264 37.7107 112.71 37.838 112.077 37.838C111.224 37.838 110.567 37.635 110.106 37.2291C109.645 36.8301 109.439 36.2866 109.487 35.5986H111.231C111.252 35.8187 111.352 35.9907 111.53 36.1146C111.716 36.2453 111.96 36.3106 112.263 36.3106C112.628 36.3106 112.937 36.204 113.192 35.9907C113.446 35.7843 113.615 35.4506 113.698 34.9897L113.842 34.1744C113.622 34.4427 113.343 34.6629 113.006 34.8349C112.676 35 112.308 35.0826 111.902 35.0826C111.496 35.0826 111.135 34.9897 110.818 34.8039C110.509 34.6182 110.264 34.3533 110.086 34.0093C109.914 33.6653 109.828 33.2628 109.828 32.8018C109.828 32.5886 109.848 32.3581 109.89 32.1104C109.993 31.5187 110.196 30.9993 110.498 30.5521C110.801 30.1049 111.166 29.7609 111.592 29.5201C112.019 29.2793 112.47 29.1589 112.944 29.1589ZM114.203 32.1207C114.224 31.9969 114.234 31.8834 114.234 31.7802C114.234 31.443 114.134 31.1782 113.935 30.9855C113.742 30.7929 113.495 30.6966 113.192 30.6966C112.841 30.6966 112.521 30.8238 112.232 31.0784C111.943 31.3261 111.761 31.6701 111.685 32.1104C111.665 32.2342 111.654 32.3478 111.654 32.451C111.654 32.7881 111.751 33.0564 111.943 33.2559C112.143 33.4486 112.39 33.5449 112.686 33.5449C113.037 33.5449 113.357 33.4176 113.646 33.163C113.935 32.9085 114.121 32.561 114.203 32.1207Z" fill="#CBCBCB"/>
<path d="M128.405 29.2414L125.825 35H123.875L123.627 31.2642L122.027 35H120.087L119.54 29.2414H121.305L121.388 33.3591L123.09 29.2414H124.958L125.216 33.3591L126.744 29.2414H128.405Z" fill="#CBCBCB"/>
<path d="M128.222 32.1104C128.325 31.5187 128.528 30.9993 128.83 30.5521C129.133 30.1049 129.498 29.7609 129.924 29.5201C130.351 29.2793 130.802 29.1589 131.276 29.1589C131.682 29.1589 132.023 29.2414 132.298 29.4066C132.573 29.5717 132.773 29.7884 132.897 30.0567L133.041 29.2414H134.806L133.784 35H132.019L132.174 34.1847C131.954 34.453 131.675 34.6698 131.338 34.8349C131.001 35 130.63 35.0826 130.224 35.0826C129.818 35.0826 129.457 34.9897 129.14 34.8039C128.83 34.6182 128.59 34.3567 128.418 34.0196C128.246 33.6756 128.16 33.2731 128.16 32.8122C128.16 32.592 128.18 32.3581 128.222 32.1104ZM132.535 32.1207C132.556 31.9969 132.566 31.8834 132.566 31.7802C132.566 31.443 132.467 31.1782 132.267 30.9855C132.074 30.7929 131.827 30.6966 131.524 30.6966C131.173 30.6966 130.853 30.8238 130.564 31.0784C130.275 31.3261 130.093 31.6701 130.017 32.1104C129.997 32.2342 129.986 32.3478 129.986 32.451C129.986 32.7881 130.083 33.0564 130.275 33.2559C130.475 33.4486 130.723 33.5449 131.018 33.5449C131.369 33.5449 131.689 33.4176 131.978 33.163C132.267 32.9085 132.453 32.561 132.535 32.1207Z" fill="#CBCBCB"/>
<path d="M138.652 29.1589C139.395 29.1589 139.983 29.3618 140.417 29.7678C140.857 30.1668 141.077 30.7138 141.077 31.4086C141.077 31.6357 141.06 31.8386 141.026 32.0175C140.998 32.1758 140.957 32.3443 140.902 32.5232H136.908C136.901 32.5645 136.898 32.6298 136.898 32.7193C136.898 33.022 136.98 33.2525 137.145 33.4107C137.311 33.569 137.531 33.6481 137.806 33.6481C138.246 33.6481 138.583 33.4623 138.817 33.0908H140.696C140.448 33.6756 140.045 34.1538 139.488 34.5253C138.931 34.8968 138.305 35.0826 137.61 35.0826C136.867 35.0826 136.272 34.8762 135.824 34.4634C135.384 34.0506 135.164 33.4898 135.164 32.7812C135.164 32.5679 135.185 32.3478 135.226 32.1207C135.329 31.5222 135.542 30.9993 135.866 30.5521C136.189 30.1049 136.592 29.7609 137.073 29.5201C137.555 29.2793 138.081 29.1589 138.652 29.1589ZM139.292 31.6254C139.306 31.529 139.313 31.4637 139.313 31.4293C139.313 31.1541 139.227 30.9442 139.055 30.7998C138.883 30.6484 138.656 30.5727 138.374 30.5727C138.071 30.5727 137.802 30.6656 137.569 30.8514C137.342 31.0302 137.176 31.2882 137.073 31.6254H139.292Z" fill="#CBCBCB"/>
<path d="M145.982 29.1795C146.546 29.1795 146.989 29.3412 147.313 29.6646C147.643 29.9879 147.808 30.4386 147.808 31.0165C147.808 31.2091 147.788 31.4155 147.746 31.6357L147.148 35H145.393L145.951 31.873C145.971 31.7561 145.982 31.6529 145.982 31.5634C145.982 31.2745 145.899 31.0509 145.734 30.8926C145.576 30.7344 145.352 30.6553 145.063 30.6553C144.719 30.6553 144.43 30.7619 144.196 30.9752C143.962 31.1885 143.811 31.4878 143.742 31.873V31.8524L143.185 35H141.42L142.772 27.3632H144.537L144.072 30.0051C144.299 29.7506 144.578 29.551 144.908 29.4066C145.238 29.2552 145.596 29.1795 145.982 29.1795Z" fill="#CBCBCB"/>
</svg>
