<svg id="Layer_1" data-name="Layer 1" xmlns="http://www.w3.org/2000/svg" viewBox="0 0 147.7 40"><defs><style>.cls-1{fill:#ff4d4d;}.cls-2{font-size:25.01px;font-family:ProductSans-Bold, Product Sans;letter-spacing:0.02em;}.cls-2,.cls-6{fill:#e5e5e5;font-weight:700;}.cls-3{letter-spacing:0.03em;}.cls-4{letter-spacing:0.02em;}.cls-5{letter-spacing:0.03em;}.cls-6{font-size:11.32px;font-family:ProductSans-BoldItalic, Product Sans;font-style:italic;letter-spacing:0.02em;}.cls-7{letter-spacing:0.03em;}.cls-8{letter-spacing:0.02em;}.cls-9{letter-spacing:0.03em;}.cls-10{letter-spacing:0.03em;}.cls-11{letter-spacing:0.02em;}.cls-12{letter-spacing:0.01em;}.cls-13{letter-spacing:0.03em;}.cls-14{letter-spacing:0.04em;}.cls-15{letter-spacing:0.03em;}</style></defs><title>bhadoo-cloud-logo-white</title><path class="cls-1" d="M8.67,3.4H17.1L4.8,15.71V7.27A3.88,3.88,0,0,1,8.67,3.4Zm21.47,0h6A3.88,3.88,0,0,1,40,7.27v6L14.66,38.6h-6A3.88,3.88,0,0,1,4.8,34.73v-6L30.15,3.41ZM40,26.32v8.41a3.88,3.88,0,0,1-3.87,3.87H27.71Z" transform="translate(-4.8 0.17)"/><text class="cls-2" transform="translate(40.08 21.46)">z<tspan class="cls-3" x="12.45" y="0">am</tspan><tspan class="cls-4" x="49.29" y="0">p</tspan><tspan class="cls-5" x="64.79" y="0">rjkt</tspan></text><text class="cls-6" transform="translate(40.08 36.76)">s<tspan class="cls-7" x="5.74" y="0">im</tspan><tspan class="cls-8" x="19.3" y="0">p</tspan><tspan x="26.26" y="0">l</tspan><tspan class="cls-9" x="29.28" y="0">e</tspan><tspan class="cls-10" x="35.96" y="0">d li</tspan><tspan class="cls-11" x="52.25" y="0">b</tspan><tspan class="cls-12" x="59.26" y="0">r</tspan><tspan class="cls-13" x="63.97" y="0">a</tspan><tspan class="cls-14" x="70.36" y="0">r</tspan><tspan class="cls-15" x="75.41" y="0">y aink</tspan></text></svg>